<svg xmlns="http://www.w3.org/2000/svg" viewBox="0 0 303.07 311.79"><defs><style>.cls-1{fill:#ed5656;}.cls-2{fill:#ad3636;}</style></defs><title>corail1</title><g id="Layer_2" data-name="Layer 2"><g id="Layer_1-2" data-name="Layer 1"><path class="cls-1" d="M301.09,140.43l-4.61-5a7.47,7.47,0,0,1-2-5.07V117.77a7.47,7.47,0,0,0-7.47-7.47H278a7.47,7.47,0,0,0-7.47,7.47v5.06a7.47,7.47,0,0,1-8.4,7.41L252.4,129a7.47,7.47,0,0,1-6.51-6.65l-2.55-24.84a7.47,7.47,0,0,0-9-6.55l-8.86,1.85a7.47,7.47,0,0,0-5.85,8.54l3.62,21.7a7.47,7.47,0,0,1-6,8.57L164,141.7a7.47,7.47,0,0,1-8.85-7l-1.47-33.16A7.47,7.47,0,0,1,155.77,96l39.9-40.82a7.47,7.47,0,0,1,3.16-1.92l47.35-14.48a7.47,7.47,0,0,0-4-14.4l-31.92,7.89a7.47,7.47,0,0,1-8.71-4.43l-.65-1.58A7.47,7.47,0,0,1,204,17l4.38-2.63a7.47,7.47,0,0,0,.3-12.63l-.73-.49a7.47,7.47,0,0,0-8.68.28L190.8,8a7.47,7.47,0,0,1-8.76.23L173.65,2.5a7.47,7.47,0,0,0-10.38,1.93l-3,4.35a7.47,7.47,0,0,0,1.26,9.88l18.56,16.08a7.47,7.47,0,0,1,.1,11.2L151.07,72.18a7.47,7.47,0,0,1-9.48.42l-24.1-18.07a7.47,7.47,0,0,1-3-6V29.77A7.47,7.47,0,0,0,107,22.29h-4.9a7.47,7.47,0,0,0-7.42,6.58L93.29,40.71a7.47,7.47,0,0,1-7.42,6.58H70.67a7.47,7.47,0,0,0-7.47,7.16l-.38,9.06a7.47,7.47,0,0,0,7.47,7.78H91.12a7.47,7.47,0,0,1,4.33,1.38l32.91,23.38a7.47,7.47,0,0,1,3.14,6.09v43.67a7.47,7.47,0,0,1-2.66,5.72L84.3,189a7.47,7.47,0,0,1-12.16-4.34l-9-47.81a7.47,7.47,0,0,1,1.76-6.34L80.2,113.39a7.47,7.47,0,0,0-2.07-11.56l-2.34-1.25a7.47,7.47,0,0,0-8.12.71l-14.1,11a7.47,7.47,0,0,1-9.74-.46L33.41,102a7.47,7.47,0,0,0-8.66-1.17L22.64,102a7.47,7.47,0,0,0-2.21,11.4L34.5,130.1a7.44,7.44,0,0,1,1.45,2.7c2.47,8.46,14.35,50.15,12.56,64.49-1,7.81-24.59,39.2-48.5,69.3v45.2H93.5L76.62,286.47a7.47,7.47,0,0,1-.78-6.75l16-42.85A7.47,7.47,0,0,1,98.37,232l30.13-1.72,79.19-3.91a7.47,7.47,0,0,1,3.46.66l27.32,12.42a7.47,7.47,0,0,0,7.58-.82l2-1.5a7.47,7.47,0,0,0-1.61-12.88l-11.65-4.85a7.47,7.47,0,0,1-1.52-12.94l6-4.35a7.47,7.47,0,0,0-3.77-13.49l-1.37-.11a7.47,7.47,0,0,0-4.77,1.23l-26.06,17.38a7.47,7.47,0,0,1-3.89,1.25l-69.43,2.37a7.47,7.47,0,0,1-6-12.19L143.08,175a7.47,7.47,0,0,1,3.56-2.41l77.22-24.13a7.47,7.47,0,0,1,1.3-.28l42.58-5.32a7.47,7.47,0,0,1,7.28,3.48l6,9.71A7.47,7.47,0,0,0,292.09,158l8.21-6.65A7.47,7.47,0,0,0,301.09,140.43Z"/><path class="cls-2" d="M76,257.79c1.89-6.34,4.15-12.52,6.53-18.64.59-1.53,1.18-3.07,1.81-4.58.33-.78.58-1.48,1-2.32a16.6,16.6,0,0,1,1.3-2.41A17.64,17.64,0,0,1,95,223a17.91,17.91,0,0,1,5.39-1.14c.45,0,.95,0,1.35,0l1.23,0,2.46,0c3.28.11,6.56.15,9.85.33,6.56.29,13.13.73,19.69,1.56-6.56.83-13.13,1.27-19.69,1.56-3.28.19-6.56.22-9.85.33l-2.46,0-1.23,0c-.42,0-.74,0-1.11.05a14.2,14.2,0,0,0-4.2.93A14.85,14.85,0,0,0,89.73,232a12.91,12.91,0,0,0-1.14,1.85c-.34.64-.7,1.45-1.05,2.17-.69,1.49-1.43,3-2.16,4.43C82.45,246.29,79.41,252.12,76,257.79Z"/><path class="cls-2" d="M4.5,275.29c5.55-8.82,11.41-17.4,17.39-25.9,3-4.27,6-8.46,9.05-12.68l9.23-12.55,9.4-12.42L52,208.67l1.19-1.54a10.93,10.93,0,0,0,1-1.39,8.88,8.88,0,0,0,1.15-4.67c0-.28,0-.54-.07-.82l-.13-1c-1.42-10.29-2.7-20.61-3.58-31,2.53,10.11,4.67,20.28,6.66,30.47l.19,1c.07.36.13.74.16,1.11a11.49,11.49,0,0,1-1.31,6.59A14.5,14.5,0,0,1,56,209.27l-1.14,1.58L52.61,214l-9.23,12.55L34,239c-3.19,4.1-6.33,8.23-9.59,12.28C17.93,259.4,11.38,267.47,4.5,275.29Z"/><path class="cls-2" d="M35.5,113.29a47.6,47.6,0,0,1,7.72,3.59l1.78,1a10.37,10.37,0,0,0,1.57.7,9.72,9.72,0,0,0,6.62-.17c.26-.12.53-.21.78-.35l.39-.2.46-.26c.61-.35,1.23-.68,1.85-1a47,47,0,0,1,7.84-3.33,47,47,0,0,1-6.09,6c-.54.45-1.08.89-1.64,1.32l-.41.32-.5.35c-.33.24-.7.43-1.06.64a11.07,11.07,0,0,1-9.65.23A10.79,10.79,0,0,1,43,120.82c-.63-.48-1.09-.92-1.64-1.39A47.59,47.59,0,0,1,35.5,113.29Z"/><path class="cls-2" d="M122.5,164.29c2.34-2.8,4.81-5.47,7.26-8.15l3.74-4,.92-1a8.88,8.88,0,0,0,.74-.9,8.79,8.79,0,0,0,1.08-2,8.53,8.53,0,0,0,.49-2.23,10.77,10.77,0,0,0,0-1.13l0-1.36-.14-5.44-.11-10.87.11-10.87c.11-3.62.15-7.25.33-10.87.09-1.81.14-3.62.25-5.44a9.12,9.12,0,0,0-.86-4.72,14,14,0,0,0-1.34-2.2c-.51-.75-1-1.5-1.53-2.26-1-1.52-2-3-3-4.59,1.31,1.28,2.57,2.58,3.83,3.9.64.65,1.25,1.32,1.87,2a15.7,15.7,0,0,1,1.84,2.2,11.31,11.31,0,0,1,1.77,5.69c.11,1.81.16,3.62.25,5.44.19,3.62.22,7.25.33,10.87l.11,10.87-.11,10.87-.14,5.44,0,1.36a10.64,10.64,0,0,1-.15,1.58,11.61,11.61,0,0,1-3.72,6.71c-.36.33-.7.59-1.05.89l-4.19,3.48C128.27,159.85,125.45,162.14,122.5,164.29Z"/><path class="cls-2" d="M182.5,143.29a145.85,145.85,0,0,1,14.2-4.69q7.17-2,14.44-3.58c2.42-.52,4.85-1,7.29-1.48l1.8-.34a9.78,9.78,0,0,0,1.47-.41,9.08,9.08,0,0,0,2.66-1.57,9.21,9.21,0,0,0,3.13-5.55c.1-.53.16-1.19.23-1.8s.13-1.24.22-1.86c.16-1.24.33-2.48.55-3.72.22,1.24.39,2.48.55,3.72.09.62.15,1.24.22,1.86s.15,1.21.18,1.92a11.17,11.17,0,0,1-.67,4.07,11,11,0,0,1-2.21,3.6,11.47,11.47,0,0,1-5.51,3.32l-1.83.46c-2.41.59-4.82,1.15-7.24,1.68q-7.27,1.58-14.62,2.74A145.85,145.85,0,0,1,182.5,143.29Z"/><path class="cls-2" d="M172.5,20.29a111.29,111.29,0,0,1,9.81,8.61c1.56,1.51,3.06,3,4.57,4.62a11.66,11.66,0,0,1,1.21,14.3,12,12,0,0,1-1.18,1.51,12.22,12.22,0,0,1-1.33,1.23q-1.24,1-2.5,2.06a109.82,109.82,0,0,1-10.56,7.66,109.82,109.82,0,0,1,8.42-10Q182,49.14,183.17,48a12.26,12.26,0,0,0,1-1.06,8.25,8.25,0,0,0,.73-1.1A8.74,8.74,0,0,0,184,36c-1.36-1.64-2.74-3.33-4.06-5A111.29,111.29,0,0,1,172.5,20.29Z"/></g></g></svg>