<svg xmlns="http://www.w3.org/2000/svg" viewBox="0 0 174.57 240.13"><defs><style>.cls-1{fill:#ed5656;}.cls-2{fill:#ad3636;}</style></defs><title>corail3</title><g id="Layer_2" data-name="Layer 2"><g id="Layer_1-2" data-name="Layer 1"><path class="cls-1" d="M79.21,148.49l77.22,24.13A7.47,7.47,0,0,1,160,175l14.58,17.87V151.82l-.34-.29a7.47,7.47,0,0,1-2.66-5.72V102.15a7.47,7.47,0,0,1,3-6V62.79l-13.08,9.81a7.47,7.47,0,0,1-9.48-.42L122.86,46a7.47,7.47,0,0,1,.1-11.2l18.56-16.08a7.47,7.47,0,0,0,1.26-9.88l-3-4.35A7.47,7.47,0,0,0,129.42,2.5L121,8.24A7.47,7.47,0,0,1,112.28,8l-8.46-6.47a7.47,7.47,0,0,0-8.68-.28l-.73.49a7.47,7.47,0,0,0,.3,12.63L99.08,17a7.47,7.47,0,0,1,3.08,9.23l-.65,1.58a7.47,7.47,0,0,1-8.71,4.43L60.88,24.36a7.47,7.47,0,0,0-4,14.4l47.35,14.48a7.47,7.47,0,0,1,3.16,1.92L147.31,96a7.47,7.47,0,0,1,2.12,5.56L148,134.69a7.47,7.47,0,0,1-8.85,7L85.76,131.65a7.47,7.47,0,0,1-6-8.57l3.62-21.7a7.47,7.47,0,0,0-5.85-8.54L68.69,91a7.47,7.47,0,0,0-9,6.55l-2.55,24.84A7.47,7.47,0,0,1,50.67,129L41,130.24a7.47,7.47,0,0,1-8.4-7.41v-5.06a7.47,7.47,0,0,0-7.47-7.47H16a7.47,7.47,0,0,0-7.47,7.47v12.61a7.47,7.47,0,0,1-2,5.07l-4.61,5a7.47,7.47,0,0,0,.79,10.88L11,158A7.47,7.47,0,0,0,22,156.08l6-9.71a7.47,7.47,0,0,1,7.28-3.48l42.58,5.32A7.48,7.48,0,0,1,79.21,148.49Z"/><path class="cls-1" d="M174.57,210.63a7.7,7.7,0,0,1-1.45.1l-69.43-2.37a7.47,7.47,0,0,1-3.89-1.25L73.74,189.74A7.47,7.47,0,0,0,69,188.51l-1.37.11a7.47,7.47,0,0,0-3.77,13.49l6,4.35a7.47,7.47,0,0,1-1.52,12.94l-11.65,4.85A7.47,7.47,0,0,0,55,237.14l2,1.5a7.47,7.47,0,0,0,7.58.82L91.92,227a7.47,7.47,0,0,1,3.46-.66l79.19,3.91Z"/><path class="cls-2" d="M39.07,138.79c10.12-.83,20.24-1.26,30.36-1.55a57.07,57.07,0,0,1,15.49,1.7c1.28.31,2.52.7,3.72,1l3.64,1.08,7.28,2.16,14.49,4.51c4.81,1.58,9.64,3.08,14.43,4.73,9.6,3.22,19.15,6.58,28.6,10.32-9.92-2.14-19.73-4.67-29.5-7.33-4.9-1.29-9.75-2.73-14.62-4.09l-14.55-4.31L84,142.59a60.36,60.36,0,0,0-14.52-2.24C59.31,140.05,49.19,139.62,39.07,138.79Z"/><path class="cls-2" d="M98.07,218.79c5.89-.41,11.76-.42,17.61-.3s11.7.4,17.53.81,11.66,1,17.47,1.69,11.61,1.56,17.39,2.81c-5.89.41-11.76.43-17.61.31s-11.7-.4-17.53-.81-11.66-1-17.47-1.69S103.85,220,98.07,218.79Z"/><path class="cls-2" d="M75.07,36.79c4.18.74,8.31,1.64,12.45,2.54l6.19,1.44A54.72,54.72,0,0,1,99.9,42.7a57.67,57.67,0,0,1,11.58,5.93,60.87,60.87,0,0,1,10,8.43c.75.79,1.47,1.63,2.16,2.44l2,2.42,4.08,4.84c2.67,3.27,5.39,6.5,8,9.82,5.28,6.59,10.46,13.28,15.33,20.22-6.14-5.86-12-12-17.7-18.19-2.89-3.08-5.67-6.26-8.51-9.39l-4.18-4.76-2.08-2.39c-.7-.78-1.36-1.53-2.07-2.27a60.65,60.65,0,0,0-9.2-8.06c-1.66-1.19-3.38-2.31-5.15-3.34s-3.6-2-5.47-2.83-3.79-1.62-5.74-2.3l-6-2.06C83,39.79,79,38.38,75.07,36.79Z"/></g></g></svg>