<svg xmlns="http://www.w3.org/2000/svg" viewBox="0 0 416.44 349.27"><defs><style>.cls-1{fill:#ed5656;}.cls-2{fill:#ad3636;}</style></defs><title>corail2</title><g id="Layer_2" data-name="Layer 2"><g id="Layer_1-2" data-name="Layer 1"><path class="cls-1" d="M200.34,268.43l-57.85-36.3a7.54,7.54,0,0,1-3.51-7.05l3.34-37.84a7.51,7.51,0,0,1,1.21-3.48c2.93-4.45,11.16-16.65,13.3-16.65,1.49,0-3-4.24-7.06-7.88a7.55,7.55,0,0,0-10.87.88l-7.63,9.39a7.54,7.54,0,0,1-10.16,1.44l-16-11.1a7.54,7.54,0,0,0-11.47,3.81h0a7.54,7.54,0,0,0,3.64,9.06l14.93,7.86a7.54,7.54,0,0,1,4,6.9l-.81,27.6a7.54,7.54,0,0,1-11,6.47L54,195.3a7.54,7.54,0,0,1-4.06-6.69V145.45a7.54,7.54,0,0,1,3.85-6.58l9.69-5.45a7.54,7.54,0,0,0,2.44-11l-4.48-6.27a7.54,7.54,0,0,0-9.38-2.43l-16.67,7.94A7.54,7.54,0,0,1,26.62,120l-9-9.71A7.54,7.54,0,0,0,8.19,109l-4.53,2.72a7.54,7.54,0,0,0-.56,12.57l16.45,12a7.54,7.54,0,0,1,3.1,5.91l1,39.38a7.54,7.54,0,0,1-7.54,7.74h-3.2a7.54,7.54,0,0,0-7.48,8.54l.64,4.79a7.54,7.54,0,0,0,7.1,6.54l18.24.91a7.54,7.54,0,0,1,3,.77L92.5,239.41a7.54,7.54,0,0,1-2.4,14.25l-31.87,4a7.54,7.54,0,0,1-7.9-4.58l-1.56-3.73a7.54,7.54,0,0,0-9.5-4.2l-.85.3a7.54,7.54,0,0,0-3,12.18l.77.85a7.54,7.54,0,0,1,0,10.19l-3.42,3.7a7.54,7.54,0,0,0,2.84,12.16l2.37.91a7.54,7.54,0,0,0,7.62-1.31L58.5,273a7.54,7.54,0,0,1,4.33-1.79l63-4.85a7.54,7.54,0,0,1,4.35,1l57.26,33a7.54,7.54,0,0,0,11.05-4.57l5.12-19A7.54,7.54,0,0,0,200.34,268.43Z"/><path class="cls-1" d="M410.61,51.74l-6.82,1a5.06,5.06,0,0,0-4.29,5v8.32a5.06,5.06,0,0,1-7.33,4.53l-9-4.5a5.06,5.06,0,0,0-6.79,2.26l-2.22,4.44a5.06,5.06,0,0,0,1.79,6.52l10,6.43A5.06,5.06,0,0,1,387.35,93l-11.66,16.65a5.06,5.06,0,0,1-7.84.56L333.73,73.85a5.06,5.06,0,0,1-1.14-5l5-16.06a5.06,5.06,0,0,1,2.45-3l15-8a5.06,5.06,0,0,0,2.68-4.47V33a5.06,5.06,0,0,0-7.33-4.53l-11.8,5.9A5.06,5.06,0,0,1,332,32.26l-7.24-13a5.06,5.06,0,0,0-8.19-.93l-4.17,4.63a5.06,5.06,0,0,0-.25,6.47l8.83,11.47a5.06,5.06,0,0,1,.79,4.69l-4,12a5.06,5.06,0,0,1-6.55,3.15L295.23,54.9A5.06,5.06,0,0,0,289.14,57l-2.42,4a5.06,5.06,0,0,0,2.74,7.41l23.87,8a5.06,5.06,0,0,1,2.36,1.65l36.41,45.8a5.06,5.06,0,0,1-.71,7L319,158.13a5.06,5.06,0,0,1-7.37-.94l-16.06-22.48a5.06,5.06,0,0,1-.53-.95l-2.23-5.21a5.06,5.06,0,0,0-5.16-3l-4.09.41a5.06,5.06,0,0,0-4.51,5.75,5.06,5.06,0,0,1-3.08,5.4l-14.15,5.83a5.06,5.06,0,0,0-2.87,6.28l.93,2.8a5.06,5.06,0,0,0,6,3.31l18.74-4.69a5.06,5.06,0,0,1,4.81,1.33l12.83,12.83a5.06,5.06,0,0,1-1.08,8l-64.59,36.75a5.06,5.06,0,0,1-7.27-2.7l-18-50.69a5.06,5.06,0,0,1,.46-4.35l8.09-13.15a5.06,5.06,0,0,1,3-2.24L296.65,117a5.06,5.06,0,0,0,3.78-4.9v-7.78a5.06,5.06,0,0,0-6.35-4.9l-12.71,3.35A5.06,5.06,0,0,1,275,98.42l-1.33-12.64a5.06,5.06,0,0,0-6.63-4.27l-5.66,1.89A5.06,5.06,0,0,0,258,88.91l1.43,10a5.06,5.06,0,0,1-3.29,5.48l-31.76,11.47a5.06,5.06,0,0,1-6.33-6.86L245,49.72a5.06,5.06,0,0,1,2.1-2.3l15.26-8.72a5.06,5.06,0,0,1,3.34-.6L283,41a5.06,5.06,0,0,0,5.67-3.5l2-6.55a5.06,5.06,0,0,0-4.54-6.54l-11.69-.69a5.06,5.06,0,0,1-4.7-4.22L267.42,5.31a5.06,5.06,0,0,0-6.13-4.1L256,2.42a5.06,5.06,0,0,0-3.32,7.33l3.66,6.8a5.06,5.06,0,0,1-1.91,6.77l-7.6,4.43a5.06,5.06,0,0,1-6.54-1.25l-18-23a5.06,5.06,0,0,0-6.59-1.22L212,4.56a5.06,5.06,0,0,0-1.06,7.84l20.44,21.41a5.06,5.06,0,0,1,.77,5.94l-37.78,68.48a5.06,5.06,0,0,1-6.27,2.27l-16.38-6.37a5.06,5.06,0,0,1-3.21-4.31l-3.38-41.66a5.06,5.06,0,0,1,2.78-4.94l12.63-6.31a5.06,5.06,0,0,0,2.78-4.14l.5-6.49a5.06,5.06,0,0,0-6.65-5.19L165.37,35a5.06,5.06,0,0,1-6.56-5.83l4.78-23.11a5.06,5.06,0,0,0-5-6.09h-.33a5.06,5.06,0,0,0-4.89,3.75L146.88,28a5.06,5.06,0,0,1-7.06,3.25l-17-8.1a5.06,5.06,0,0,0-6.88,2.69l-1.39,3.48a5.06,5.06,0,0,0,2.66,6.51l25.09,11a5.06,5.06,0,0,1,3,4.63v41.3a5.06,5.06,0,0,1-7,4.69l-19.78-8.09a5.06,5.06,0,0,1-2.74-2.69l-9.11-21.27a5.06,5.06,0,0,0-6.16-2.84L90,65.92a5.06,5.06,0,0,0-2.9,7.32L98.57,93.51a5.06,5.06,0,0,1-1.77,6.81l-13.2,8.07a5.06,5.06,0,0,0-.57,8.24l6.39,5.23a5.06,5.06,0,0,0,5.28.7l21.52-9.68a5.06,5.06,0,0,1,3.48-.25l53.77,15.53a5.06,5.06,0,0,1,3.6,4.09l11.73,76.27a144.91,144.91,0,0,1-.05,44.42l-15.06,96.34H242A33,33,0,0,1,260.45,325L333,290.69l17.58-4a24,24,0,0,1,20.09,4.47l2.74,2.13.39-.32a7.54,7.54,0,0,0-.39-11.89l-.91-.66a13.58,13.58,0,0,1-5.59-11c0-2.64,0-5.54,0-7.75a3.1,3.1,0,0,0-3.56-3.07l-.11,0a7,7,0,0,0-6,6.36l-.76,8.76-8.42,1.05a17.45,17.45,0,0,1-17.88-9.73l-10.93-22.63a11.45,11.45,0,0,1-.72-8l3.38-12.18a5.06,5.06,0,0,0-5.38-6.39l-2.13.21a5.06,5.06,0,0,0-4.41,3.81l-3,12.19H295.31a8.92,8.92,0,0,0-8.8,10.39,6.29,6.29,0,0,0,6.2,5.25h3.81a10.52,10.52,0,0,1,9.41,5.82l11.43,22.86-6,3.24a7.41,7.41,0,0,1-10.93-6.53h0a4.84,4.84,0,0,0-7.28-4.18l-3.92,2.29a9.87,9.87,0,0,0-4.86,7.71l-.29,3.53a11.25,11.25,0,0,1-7.12,9.54l-29.3,11.43a9.77,9.77,0,0,1-13-11.47l5.7-22.81a70.47,70.47,0,0,1,29.59-41.75l33.21-21.89a5.06,5.06,0,0,1,2.68-.83l56-1.22a5.06,5.06,0,0,1,4,1.84l14.53,17.65a5.06,5.06,0,0,0,5.4,1.62l6-1.85a5.06,5.06,0,0,0,2.22-8.28l-3.56-3.83a5.06,5.06,0,0,1,3.71-8.51H400a5.06,5.06,0,0,0,5-4.7l.58-8.13a5.06,5.06,0,0,0-5-5.42H394.1a5.06,5.06,0,0,1-4.34-7.67l2.05-3.42a5.06,5.06,0,0,0-4.76-7.65l-3.31.28a5.06,5.06,0,0,0-3.84,2.31L371,181.48a5.06,5.06,0,0,1-4.26,2.32H345a5.06,5.06,0,0,1-3.64-8.58l30.44-31.42a5.06,5.06,0,0,1,4-1.52l27.26,2.1a5.06,5.06,0,0,0,5.3-3.82l1.37-5.49a5.06,5.06,0,0,0-4.68-6.28l-13.14-.6a5.06,5.06,0,0,1-3.87-8l27.45-38a5.06,5.06,0,0,0,1-3V56.74A5.06,5.06,0,0,0,410.61,51.74Z"/><path class="cls-2" d="M185.94,132.27c3.31,16.68,6.24,33.41,9,50.17,1.42,8.39,2.74,16.73,4.05,25.18a191.66,191.66,0,0,1,1.82,25.65A192,192,0,0,1,199,258.92c-.63,4.26-1.33,8.4-2,12.61s-1.35,8.38-2.06,12.57c-2.78,16.76-5.71,33.49-9,50.17,1.67-16.92,3.74-33.78,5.94-50.63,1.05-8.42,2.31-16.86,3.38-25.22a196.71,196.71,0,0,0,1.57-25.15,197.06,197.06,0,0,0-1.57-25.15c-1.08-8.37-2.33-16.81-3.38-25.22C189.68,166.06,187.62,149.19,185.94,132.27Z"/><path class="cls-2" d="M242.94,215.27c10-6.5,20.23-12.65,30.51-18.68,5.12-3,10.31-6,15.47-9l7.77-4.39c2.56-1.44,5.07-3,7.54-4.58a158.35,158.35,0,0,0,14.36-10.25c2.31-1.83,4.58-3.7,6.78-5.66s4.36-4,6.49-6c8.53-8.32,17.17-16.54,26.08-24.49-7.73,9.11-15.74,17.94-23.85,26.67A143.45,143.45,0,0,1,321,171.37,151.13,151.13,0,0,1,306.39,182c-2.55,1.61-5.14,3.16-7.78,4.61s-5.22,2.88-7.85,4.29c-5.26,2.79-10.49,5.64-15.79,8.37C264.39,204.83,253.76,210.22,242.94,215.27Z"/><path class="cls-2" d="M101.94,108.27c1.25-.82,2.5-1.61,3.79-2.36a29.82,29.82,0,0,1,4.09-2,30.73,30.73,0,0,1,9-2,31.4,31.4,0,0,1,9.26.73c1.55.37,2.92.79,4.35,1.19l4.24,1.25c5.65,1.71,11.26,3.53,16.81,5.53s11.08,4.11,16.49,6.61c-5.89-.91-11.66-2.2-17.39-3.62s-11.42-3-17.07-4.69l-8.37-2.61a38.51,38.51,0,0,0-4.08-.88,40.72,40.72,0,0,0-4.18-.4,36.3,36.3,0,0,0-8.47.74,35.26,35.26,0,0,0-4.19,1.11C104.78,107.37,103.37,107.86,101.94,108.27Z"/><path class="cls-2" d="M19.94,192.27a9.13,9.13,0,0,0,5.94-3.62,8,8,0,0,0,1.36-3,9.91,9.91,0,0,0,.2-1.58l0-.79-.06-.93q-.44-7.52-.43-15t.43-15a147.05,147.05,0,0,1,1.57-15,147.05,147.05,0,0,1,1.57,15q.44,7.52.43,15t-.43,15l-.06.95c0,.36-.07.73-.13,1.09a9.86,9.86,0,0,1-3,5.55A8.83,8.83,0,0,1,19.94,192.27Z"/></g></g></svg>