<svg xmlns="http://www.w3.org/2000/svg" viewBox="0 0 1366 102"><defs><style>.cls-1{fill:#275e6d;}.cls-2{fill:#1b4751;}</style></defs><title>fondmarin</title><g id="Layer_2" data-name="Layer 2"><g id="Layer_1-2" data-name="Layer 1"><path class="cls-1" d="M1366,102V0S886.79,85.92,514.67,41.62,1,48.85,1,48.85L0,102Z"/><path class="cls-2" d="M152,45c31.21-4.61,62.76-6.32,94.26-7.11s63.07-.06,94.55,1.73c3.94.17,7.87.5,11.8.76l11.79.83,11.79.9c3.93.32,7.85.71,11.77,1.1,7.84.79,15.69,1.54,23.52,2.38s15.64,1.94,23.46,2.95c15.64,1.88,31.18,4.64,46.72,7.15l5.82,1c1.94.35,3.87.75,5.8,1.12,3.87.76,7.74,1.49,11.59,2.3l11.57,2.38c3.85.84,7.7,1.64,11.54,2.52-3.94-.25-7.86-.58-11.79-.87l-11.76-1c-7.84-.64-15.64-1.59-23.49-2.08l-23.47-2c-3.91-.3-7.81-.76-11.73-1L434,57.14l-23.45-1.89c-7.83-.5-15.64-1.08-23.46-1.64-3.91-.26-7.81-.62-11.73-.86l-11.74-.69C355.83,51.58,348,51,340.19,50.6q-46.94-2.69-94-4.09l-11.76-.38c-3.92-.08-7.84-.15-11.76-.27s-7.85-.25-11.77-.29l-11.77-.18C183.47,45.09,167.76,45,152,45Z"/><path class="cls-2" d="M998.5,59.5s289.89-21.88,335.26-33.43a25.74,25.74,0,0,0,4.74-1.57c22-11,4,52-340,40"/></g></g></svg>