<svg xmlns="http://www.w3.org/2000/svg" viewBox="0 0 1705.5 552.29"><defs><style>.cls-1{fill:#ed5656;}.cls-2{fill:#275e6d;}.cls-3{fill:#ad3b3b;}</style></defs><title>Asset 2</title><g id="Layer_2" data-name="Layer 2"><g id="Layer_1-2" data-name="Layer 1"><path class="cls-1" d="M821.84,345.85,764,309.55a7.54,7.54,0,0,1-3.51-7.05l3.34-37.84a7.51,7.51,0,0,1,1.21-3.48c2.93-4.45,11.16-16.65,13.3-16.65,1.49,0-3-4.24-7.06-7.88a7.55,7.55,0,0,0-10.87.88l-7.63,9.39a7.54,7.54,0,0,1-10.16,1.44l-16-11.1a7.54,7.54,0,0,0-11.47,3.81h0a7.54,7.54,0,0,0,3.64,9.06L733.76,258a7.54,7.54,0,0,1,4,6.9l-.81,27.6a7.54,7.54,0,0,1-11,6.47L675.5,272.71a7.54,7.54,0,0,1-4.06-6.69V222.87a7.54,7.54,0,0,1,3.85-6.58l9.69-5.45a7.54,7.54,0,0,0,2.44-11l-4.48-6.27a7.54,7.54,0,0,0-9.38-2.43l-16.67,7.94a7.54,7.54,0,0,1-8.77-1.68l-9-9.71a7.54,7.54,0,0,0-9.41-1.34l-4.53,2.72a7.54,7.54,0,0,0-.56,12.57l16.45,12a7.54,7.54,0,0,1,3.1,5.91l1,39.38a7.54,7.54,0,0,1-7.54,7.74h-3.2a7.54,7.54,0,0,0-7.48,8.54l.64,4.79a7.54,7.54,0,0,0,7.1,6.54l18.24.91a7.54,7.54,0,0,1,3,.77L714,316.83a7.54,7.54,0,0,1-2.4,14.25l-31.87,4a7.54,7.54,0,0,1-7.9-4.58l-1.56-3.73a7.54,7.54,0,0,0-9.5-4.2l-.85.3a7.54,7.54,0,0,0-3,12.18l.77.85a7.54,7.54,0,0,1,0,10.19l-3.42,3.7A7.54,7.54,0,0,0,657,361.93l2.37.91a7.54,7.54,0,0,0,7.62-1.31l13-11.11a7.54,7.54,0,0,1,4.33-1.79l63-4.85a7.54,7.54,0,0,1,4.35,1l57.26,33A7.54,7.54,0,0,0,820,373.23l5.12-19A7.54,7.54,0,0,0,821.84,345.85Z"/><path class="cls-2" d="M43.5,397s204.56-43.6,576.67-12.76,881.33-33,881.33-33l-5.44,148.89-988,52.11Z"/><path class="cls-1" d="M50.12,430.88a7.47,7.47,0,0,0,12.56,1.74C85.65,405.05,152.35,324,154,310.79c1.79-14.35-10.08-56-12.56-64.49a7.44,7.44,0,0,0-1.45-2.7l-14.07-16.74a7.47,7.47,0,0,1,2.21-11.4l2.12-1.13a7.47,7.47,0,0,1,8.66,1.17l10.42,9.87a7.47,7.47,0,0,0,9.74.46l14.1-11a7.47,7.47,0,0,1,8.12-.71l2.34,1.25a7.47,7.47,0,0,1,2.07,11.56l-15.26,17.17a7.47,7.47,0,0,0-1.76,6.34l9,47.81a7.47,7.47,0,0,0,12.16,4.34L234.34,265a7.47,7.47,0,0,0,2.66-5.72V215.65a7.47,7.47,0,0,0-3.14-6.09l-32.91-23.38a7.47,7.47,0,0,0-4.33-1.38H175.79a7.47,7.47,0,0,1-7.47-7.78l.38-9.06a7.47,7.47,0,0,1,7.47-7.16h15.2a7.47,7.47,0,0,0,7.42-6.58l1.42-11.84a7.47,7.47,0,0,1,7.42-6.58h4.9a7.47,7.47,0,0,1,7.47,7.47v18.79a7.47,7.47,0,0,0,3,6l24.1,18.07a7.47,7.47,0,0,0,9.48-.42l29.14-26.23a7.47,7.47,0,0,0-.1-11.2L267,132.17a7.47,7.47,0,0,1-1.26-9.88l3-4.35A7.47,7.47,0,0,1,279.15,116l8.38,5.74a7.47,7.47,0,0,0,8.76-.23l8.46-6.47a7.47,7.47,0,0,1,8.68-.28l.73.49a7.47,7.47,0,0,1-.3,12.63l-4.38,2.63a7.47,7.47,0,0,0-3.08,9.23l.65,1.58a7.47,7.47,0,0,0,8.71,4.44l31.92-7.89a7.47,7.47,0,0,1,7.3,2.21h0a7.47,7.47,0,0,1-3.32,12.2l-47.35,14.48a7.47,7.47,0,0,0-3.16,1.92l-39.9,40.82a7.47,7.47,0,0,0-2.12,5.56l1.47,33.16a7.47,7.47,0,0,0,8.85,7l53.34-10.05a7.47,7.47,0,0,0,6-8.57l-3.62-21.7a7.47,7.47,0,0,1,5.85-8.54l8.86-1.85a7.47,7.47,0,0,1,9,6.55l2.55,24.84a7.47,7.47,0,0,0,6.51,6.65l9.7,1.21a7.47,7.47,0,0,0,8.4-7.41v-5.06a7.47,7.47,0,0,1,7.47-7.47h9.06a7.47,7.47,0,0,1,7.47,7.47v12.61a7.47,7.47,0,0,0,2,5.07l4.61,5a7.47,7.47,0,0,1-.79,10.88l-8.21,6.65a7.47,7.47,0,0,1-11.06-1.87l-6-9.71a7.47,7.47,0,0,0-7.28-3.48l-42.58,5.32a7.47,7.47,0,0,0-1.3.28l-77.22,24.13a7.47,7.47,0,0,0-3.56,2.41L229.4,312a7.47,7.47,0,0,0,6,12.19l69.43-2.37a7.47,7.47,0,0,0,3.89-1.25l26.06-17.38A7.47,7.47,0,0,1,339.6,302l1.37.11a7.47,7.47,0,0,1,3.77,13.49l-6,4.35a7.47,7.47,0,0,0,1.52,12.94l11.65,4.85a7.47,7.47,0,0,1,1.61,12.88l-2,1.5A7.47,7.47,0,0,1,344,353l-27.32-12.42a7.47,7.47,0,0,0-3.46-.66L234,343.79l-30.13,1.72a7.47,7.47,0,0,0-6.58,4.85l-16,42.85a7.47,7.47,0,0,0,.78,6.75l33.08,49.62a7.47,7.47,0,0,1-5.38,11.57L8.31,483.86A7.47,7.47,0,0,1,0,476.43V353.81c0-8.06,11-10.41,14.29-3.05Z"/><path class="cls-1" d="M788.76,487l24.55-157a144.91,144.91,0,0,0,.05-44.42l-11.73-76.27a5.06,5.06,0,0,0-3.6-4.09l-53.77-15.53a5.06,5.06,0,0,0-3.48.25l-21.52,9.68a5.06,5.06,0,0,1-5.28-.7l-6.39-5.23a5.06,5.06,0,0,1,.57-8.24l13.2-8.07a5.06,5.06,0,0,0,1.77-6.81l-11.46-20.27a5.06,5.06,0,0,1,2.9-7.32l10.52-3.29a5.06,5.06,0,0,1,6.16,2.84l9.11,21.27a5.06,5.06,0,0,0,2.74,2.69l19.78,8.09a5.06,5.06,0,0,0,7-4.69v-41.3a5.06,5.06,0,0,0-3-4.63l-25.09-11a5.06,5.06,0,0,1-2.66-6.51l1.39-3.48a5.06,5.06,0,0,1,6.88-2.69l17,8.1a5.06,5.06,0,0,0,7.06-3.25L778,80.77A5.06,5.06,0,0,1,782.86,77h.33a5.06,5.06,0,0,1,5,6.09l-4.78,23.11a5.06,5.06,0,0,0,6.56,5.83l11.8-3.93a5.06,5.06,0,0,1,6.65,5.19l-.5,6.49a5.06,5.06,0,0,1-2.78,4.14l-12.63,6.31a5.06,5.06,0,0,0-2.78,4.94l3.38,41.66a5.06,5.06,0,0,0,3.21,4.31l16.38,6.37a5.06,5.06,0,0,0,6.27-2.27l37.78-68.48a5.06,5.06,0,0,0-.77-5.94L835.5,89.42a5.06,5.06,0,0,1,1.06-7.84l3.77-2.26a5.06,5.06,0,0,1,6.59,1.22l18,23a5.06,5.06,0,0,0,6.54,1.25l7.6-4.43a5.06,5.06,0,0,0,1.91-6.77l-3.66-6.8a5.06,5.06,0,0,1,3.32-7.33l5.24-1.21a5.06,5.06,0,0,1,6.13,4.1l2.36,14.17a5.06,5.06,0,0,0,4.7,4.22l11.69.69a5.06,5.06,0,0,1,4.54,6.54l-2,6.55a5.06,5.06,0,0,1-5.67,3.5l-17.32-2.89a5.06,5.06,0,0,0-3.34.6l-15.26,8.72a5.06,5.06,0,0,0-2.1,2.3L842.62,186a5.06,5.06,0,0,0,6.33,6.86L880.7,181.4a5.06,5.06,0,0,0,3.29-5.48l-1.43-10a5.06,5.06,0,0,1,3.41-5.52l5.66-1.89a5.06,5.06,0,0,1,6.63,4.27l1.33,12.64a5.06,5.06,0,0,0,6.32,4.37l12.71-3.35a5.06,5.06,0,0,1,6.35,4.9v7.78a5.06,5.06,0,0,1-3.78,4.9l-73.78,19.35a5.06,5.06,0,0,0-3,2.24l-8.09,13.15a5.06,5.06,0,0,0-.46,4.35l18,50.69a5.06,5.06,0,0,0,7.27,2.7l64.59-36.75a5.06,5.06,0,0,0,1.08-8L914,229a5.06,5.06,0,0,0-4.81-1.33l-18.74,4.69a5.06,5.06,0,0,1-6-3.31l-.93-2.8a5.06,5.06,0,0,1,2.87-6.28l14.15-5.83a5.06,5.06,0,0,0,3.08-5.4h0a5.06,5.06,0,0,1,4.51-5.75l4.09-.41a5.06,5.06,0,0,1,5.16,3l2.23,5.21a5.06,5.06,0,0,0,.53.95l16.06,22.48a5.06,5.06,0,0,0,7.37.94L976,207.94a5.06,5.06,0,0,0,.71-7l-36.41-45.8a5.06,5.06,0,0,0-2.36-1.65l-23.87-8a5.06,5.06,0,0,1-2.74-7.41l2.42-4a5.06,5.06,0,0,1,6.09-2.15l15.93,5.87a5.06,5.06,0,0,0,6.55-3.15l4-12a5.06,5.06,0,0,0-.79-4.69l-8.82-11.47a5.06,5.06,0,0,1,.25-6.47l4.17-4.63a5.06,5.06,0,0,1,8.19.93l7.24,13a5.06,5.06,0,0,0,6.69,2.07l11.8-5.9a5.06,5.06,0,0,1,7.33,4.53v4.41a5.06,5.06,0,0,1-2.68,4.47l-15,8a5.06,5.06,0,0,0-2.45,3l-5,16.06a5.06,5.06,0,0,0,1.14,5l34.12,36.32a5.06,5.06,0,0,0,7.84-.56L1011.91,170a5.06,5.06,0,0,0-1.41-7.16l-10-6.43a5.06,5.06,0,0,1-1.79-6.52l2.22-4.44a5.06,5.06,0,0,1,6.79-2.26l9,4.5a5.06,5.06,0,0,0,7.33-4.53v-8.32a5.06,5.06,0,0,1,4.29-5l6.82-1a5.06,5.06,0,0,1,5.83,5V156.2a5.06,5.06,0,0,1-1,3l-27.45,38a5.06,5.06,0,0,0,3.87,8l13.14.6a5.06,5.06,0,0,1,4.68,6.28l-1.37,5.49a5.06,5.06,0,0,1-5.3,3.82l-27.26-2.1a5.06,5.06,0,0,0-4,1.52l-30.44,31.42a5.06,5.06,0,0,0,3.64,8.58h21.78a5.06,5.06,0,0,0,4.26-2.32l8.89-13.83a5.06,5.06,0,0,1,3.84-2.31l3.31-.28a5.06,5.06,0,0,1,4.76,7.65l-2.05,3.42a5.06,5.06,0,0,0,4.34,7.67h6.48a5.06,5.06,0,0,1,5,5.42l-.58,8.13a5.06,5.06,0,0,1-5,4.7h-5.84a5.06,5.06,0,0,0-3.71,8.51l3.56,3.83a5.06,5.06,0,0,1-2.22,8.28l-6,1.85a5.06,5.06,0,0,1-5.4-1.62l-14.53-17.65a5.06,5.06,0,0,0-4-1.84l-56,1.22a5.06,5.06,0,0,0-2.68.83l-33.21,21.89a70.47,70.47,0,0,0-29.59,41.75l-5.7,22.81a9.77,9.77,0,0,0,13,11.47L901.5,369a11.25,11.25,0,0,0,7.12-9.54l.29-3.53a9.87,9.87,0,0,1,4.86-7.71l3.92-2.29a4.84,4.84,0,0,1,7.28,4.18h0a7.41,7.41,0,0,0,10.93,6.53l6-3.24L930.5,330.51a10.52,10.52,0,0,0-9.41-5.82h-3.81a6.29,6.29,0,0,1-6.2-5.25h0a8.92,8.92,0,0,1,8.8-10.39H931.5l3-12.19a5.06,5.06,0,0,1,4.41-3.81l2.13-.21a5.06,5.06,0,0,1,5.38,6.39l-3.38,12.18a11.45,11.45,0,0,0,.72,8l10.93,22.63a17.45,17.45,0,0,0,17.88,9.73l8.42-1.05.76-8.76a7,7,0,0,1,6-6.36l.11,0a3.1,3.1,0,0,1,3.56,3.07c0,2.21,0,5.11,0,7.75a13.58,13.58,0,0,0,5.59,11l.91.66a7.54,7.54,0,0,1,.39,11.89l-.39.32-2.74-2.13a24,24,0,0,0-20.09-4.47l-17.58,4L885,402a33,33,0,0,0-18.69,33.45l5.87,52.86Z"/><path class="cls-1" d="M1655.38,317.38a7.47,7.47,0,0,1-12.56,1.74c-23-27.57-89.67-108.59-91.32-121.83-1.79-14.35,10.08-56,12.56-64.49a7.44,7.44,0,0,1,1.45-2.7l14.07-16.74a7.47,7.47,0,0,0-2.21-11.4l-2.12-1.13a7.47,7.47,0,0,0-8.66,1.17l-10.42,9.87a7.47,7.47,0,0,1-9.74.46l-14.1-11a7.47,7.47,0,0,0-8.12-.71l-2.34,1.25a7.47,7.47,0,0,0-2.07,11.56l15.26,17.17a7.47,7.47,0,0,1,1.76,6.34l-9,47.81A7.47,7.47,0,0,1,1515.7,189l-44.54-37.51a7.47,7.47,0,0,1-2.66-5.72V102.15a7.47,7.47,0,0,1,3.14-6.09l32.91-23.38a7.47,7.47,0,0,1,4.33-1.38h20.83a7.47,7.47,0,0,0,7.47-7.78l-.38-9.06a7.47,7.47,0,0,0-7.47-7.16h-15.2a7.47,7.47,0,0,1-7.42-6.58l-1.42-11.84a7.47,7.47,0,0,0-7.42-6.58H1493a7.47,7.47,0,0,0-7.47,7.47V48.56a7.47,7.47,0,0,1-3,6l-24.1,18.07a7.47,7.47,0,0,1-9.48-.42L1419.79,46a7.47,7.47,0,0,1,.1-11.2l18.56-16.08a7.47,7.47,0,0,0,1.26-9.88l-3-4.35a7.47,7.47,0,0,0-10.38-1.93L1418,8.24A7.47,7.47,0,0,1,1409.2,8l-8.46-6.47a7.47,7.47,0,0,0-8.68-.28l-.73.49a7.47,7.47,0,0,0,.3,12.63L1396,17a7.47,7.47,0,0,1,3.08,9.23l-.65,1.58a7.47,7.47,0,0,1-8.71,4.44l-31.92-7.89a7.47,7.47,0,0,0-7.3,2.21h0a7.47,7.47,0,0,0,3.32,12.2l47.35,14.48a7.47,7.47,0,0,1,3.16,1.92L1444.23,96a7.47,7.47,0,0,1,2.12,5.56l-1.47,33.16a7.47,7.47,0,0,1-8.85,7l-53.34-10.05a7.47,7.47,0,0,1-6-8.57l3.62-21.7a7.47,7.47,0,0,0-5.85-8.54L1365.61,91a7.47,7.47,0,0,0-9,6.55l-2.55,24.84a7.47,7.47,0,0,1-6.51,6.65l-9.7,1.21a7.47,7.47,0,0,1-8.4-7.41v-5.06a7.47,7.47,0,0,0-7.47-7.47H1313a7.47,7.47,0,0,0-7.47,7.47v12.61a7.47,7.47,0,0,1-2,5.07l-4.61,5a7.47,7.47,0,0,0,.79,10.88l8.21,6.65a7.47,7.47,0,0,0,11.06-1.87l6-9.71a7.47,7.47,0,0,1,7.28-3.48l42.58,5.32a7.47,7.47,0,0,1,1.3.28l77.22,24.13a7.47,7.47,0,0,1,3.56,2.41l19.18,23.51a7.47,7.47,0,0,1-6,12.19l-69.43-2.37a7.47,7.47,0,0,1-3.89-1.25l-26.06-17.38a7.47,7.47,0,0,0-4.77-1.23l-1.37.11a7.47,7.47,0,0,0-3.77,13.49l6,4.35a7.47,7.47,0,0,1-1.52,12.94l-11.65,4.85a7.47,7.47,0,0,0-1.61,12.88l2,1.5a7.47,7.47,0,0,0,7.58.82L1388.85,227a7.47,7.47,0,0,1,3.46-.66l79.19,3.91,30.13,1.72a7.47,7.47,0,0,1,6.58,4.85l16,42.85a7.47,7.47,0,0,1-.78,6.75l-33.08,49.62a7.47,7.47,0,0,0,5.38,11.57l201.51,22.69a7.47,7.47,0,0,0,8.31-7.43V240.31c0-8.06-11-10.41-14.29-3.05Z"/><path class="cls-3" d="M119.5,389.29q.11-2.89.47-5.61c.23-1.82.52-3.6.85-5.35,1.92-2.65,3.69-5.4,5.55-8.09l11-16.25,11-16.25,5.5-8.12c1.53-.94,3.05-1.88,4.67-2.76l2.43-1.32c.85-.41,1.66-.85,2.55-1.24,0,1-.14,1.88-.2,2.82l-.32,2.74c-.22,1.83-.52,3.59-.83,5.36l-5.5,8.13-11,16.25-11,16.25c-1.81,2.72-3.71,5.39-5.45,8.16-1.51,1-3,1.89-4.65,2.77S121.26,388.51,119.5,389.29Z"/></g></g></svg>